<?xml version="1.0" encoding="UTF-8"?>
<svg fill="none" version="1.1" viewBox="0 0 35 35" xmlns="http://www.w3.org/2000/svg"><g fill="#7c4dff"><path transform="rotate(-90,21.875792,18.972475)" d="m17.949 0.0553589h-8.91276c-0.66317 0-1.20079 0.5481111-1.20079 1.2242411 0 0.67612 0.53762 1.22423 1.20079 1.22423h8.91276c0.663 0 1.2007-0.54811 1.2007-1.22423 0-0.67613-0.5377-1.2242411-1.2007-1.2242411z" mask="url(#a)"/><path transform="rotate(-90,26.622223,14.226045)" d="m17.949 17.1966h-8.91276c-0.66317 0-1.20079 0.5481-1.20079 1.2242s0.53762 1.2243 1.20079 1.2243h8.91276c0.663 0 1.2007-0.5482 1.2007-1.2243s-0.5377-1.2242-1.2007-1.2242z" mask="url(#b)"/><path transform="rotate(-90,20.25749,14.86458)" d="m15.8936 3.48328h-10.97015c-0.66319 0-1.20079 0.54811-1.20079 1.22423 0 0.67613 0.5376 1.22424 1.20079 1.22424h10.97015c0.6631 0 1.2008-0.54811 1.2008-1.22424 0-0.67612-0.5377-1.22423-1.2008-1.22423z" mask="url(#c)"/><path transform="rotate(-90,22.514253,12.607817)" d="m15.8936 13.7669h-10.97015c-0.66319 0-1.20079 0.5481-1.20079 1.2242s0.5376 1.2243 1.20079 1.2243h10.97015c0.6631 0 1.2008-0.5482 1.2008-1.2243s-0.5377-1.2242-1.2008-1.2242z" mask="url(#d)"/><path transform="rotate(-90,18.964774,11.082262)" d="m13.664 6.91109h-12.34114c-0.663177 0-1.20079 0.54811-1.20079 1.22423 0 0.67613 0.537613 1.22424 1.20079 1.22424h12.34114c0.6633 0 1.2008-0.54811 1.2008-1.22424 0-0.67612-0.5375-1.22423-1.2008-1.22423z" mask="url(#e)"/><path transform="rotate(-90,18.730165,11.316872)" d="m14.8648 11.5641c0-0.6726-0.5397-1.2251-1.2008-1.2251h-12.34114c-0.659256 0-1.20079 0.5506-1.20079 1.2251 0 0.6727 0.539723 1.2252 1.20079 1.2252h12.34294c0.6593 0 1.2008-0.5507 1.2008-1.2252z" mask="url(#f)"/><path transform="rotate(-90,27.418151,22.343251)" d="m26.0069 27.4766h-8.9126c-0.6632 0-1.2007 0.548-1.2007 1.2243 0 0.6761 0.5375 1.2242 1.2007 1.2242h8.9126c0.6632 0 1.2009-0.5481 1.2009-1.2242 0-0.6763-0.5377-1.2243-1.2009-1.2243z" mask="url(#g)"/><path transform="rotate(-90,19.712151,30.049251)" d="m26.0069 10.3371h-8.9126c-0.6632 0-1.2007 0.5481-1.2007 1.2242 0 0.6762 0.5375 1.2243 1.2007 1.2243h8.9126c0.6632 0 1.2009-0.5481 1.2009-1.2243 0-0.6761-0.5377-1.2242-1.2009-1.2242z" mask="url(#h)"/><path transform="rotate(-90,27.415669,24.832211)" d="m30.12 24.0486h-10.97c-0.6593 0-1.2008 0.5508-1.2008 1.2253 0 0.6726 0.5396 1.2252 1.2008 1.2252h10.97c0.6593 0 1.2008-0.5508 1.2008-1.2252 0-0.6727-0.5396-1.2253-1.2008-1.2253z" mask="url(#i)"/><path transform="rotate(-90,22.200174,30.047706)" d="m30.12 13.7649h-10.97c-0.6632 0-1.2008 0.5482-1.2008 1.2244 0 0.6761 0.5376 1.2242 1.2008 1.2242h10.97c0.6633 0 1.2008-0.5481 1.2008-1.2242 0-0.6762-0.5375-1.2244-1.2008-1.2244z" mask="url(#j)"/><path transform="rotate(-90,25.834687,25.742673)" d="m33.7211 20.6208h-12.3431c-0.6592 0-1.2008 0.5507-1.2008 1.2251 0 0.6727 0.5398 1.2252 1.2008 1.2252h12.3431c0.6592 0 1.2007-0.5506 1.2007-1.2252 0-0.6726-0.5397-1.2251-1.2007-1.2251z" mask="url(#k)"/><path transform="rotate(-90,23.110045,28.468065)" d="m33.7207 17.1929h-12.3412c-0.6631 0-1.2008 0.5481-1.2008 1.2243 0 0.6761 0.5377 1.2242 1.2008 1.2242h12.3412c0.6631 0 1.2008-0.5481 1.2008-1.2242 0-0.6762-0.5377-1.2243-1.2008-1.2243z" mask="url(#l)"/></g><defs><mask id="l" maskUnits="userSpaceOnUse"><g transform="translate(0 -.00974765)"><path d="m34.9196 0.06515235h-34.79753v29.87149565h34.79753z" fill="#fff"/></g></mask><mask id="k" maskUnits="userSpaceOnUse"><g transform="translate(0 -.00974765)"><path d="m34.9196 0.06515235h-34.79753v29.87149565h34.79753z" fill="#fff"/></g></mask><mask id="j" maskUnits="userSpaceOnUse"><g transform="translate(0 -.00974765)"><path d="m34.9196 0.06515235h-34.79753v29.87149565h34.79753z" fill="#fff"/></g></mask><mask id="i" maskUnits="userSpaceOnUse"><g transform="translate(0 -.00974765)"><path d="m34.9196 0.06515235h-34.79753v29.87149565h34.79753z" fill="#fff"/></g></mask><mask id="h" maskUnits="userSpaceOnUse"><g transform="translate(0 -.00974765)"><path d="m34.9196 0.06515235h-34.79753v29.87149565h34.79753z" fill="#fff"/></g></mask><mask id="g" maskUnits="userSpaceOnUse"><g transform="translate(0 -.00974765)"><path d="m34.9196 0.06515235h-34.79753v29.87149565h34.79753z" fill="#fff"/></g></mask><mask id="f" maskUnits="userSpaceOnUse"><g transform="translate(0 -.00974765)"><path d="m34.9196 0.06515235h-34.79753v29.87149565h34.79753z" fill="#fff"/></g></mask><mask id="e" maskUnits="userSpaceOnUse"><g transform="translate(0 -.00974765)"><path d="m34.9196 0.06515235h-34.79753v29.87149565h34.79753z" fill="#fff"/></g></mask><mask id="d" maskUnits="userSpaceOnUse"><g transform="translate(0 -.00974765)"><path d="m34.9196 0.06515235h-34.79753v29.87149565h34.79753z" fill="#fff"/></g></mask><mask id="c" maskUnits="userSpaceOnUse"><g transform="translate(0 -.00974765)"><path d="m34.9196 0.06515235h-34.79753v29.87149565h34.79753z" fill="#fff"/></g></mask><mask id="b" maskUnits="userSpaceOnUse"><g transform="translate(0 -.00974765)"><path d="m34.9196 0.06515235h-34.79753v29.87149565h34.79753z" fill="#fff"/></g></mask><mask id="a" maskUnits="userSpaceOnUse"><g transform="translate(0 -.00974765)"><path d="m34.9196 0.06515235h-34.79753v29.87149565h34.79753z" fill="#fff"/></g></mask></defs></svg>
